<svg width="18" height="18" viewBox="0 0 18 18" fill="none" xmlns="http://www.w3.org/2000/svg">
<path d="M2.9847 6.16725C2.28304 6.99538 1.76056 7.9599 1.4502 9C2.4192 12.2535 5.4327 14.625 8.9997 14.625C9.74445 14.625 10.4644 14.5215 11.1469 14.3287M4.6707 4.671C5.95516 3.82336 7.46075 3.37262 8.9997 3.375C12.5667 3.375 15.5794 5.7465 16.5484 8.9985C16.0174 10.7755 14.8774 12.3087 13.3287 13.329M4.6707 4.671L2.2497 2.25M4.6707 4.671L7.4082 7.4085M13.3287 13.329L15.7497 15.75M13.3287 13.329L10.5912 10.5915C10.8001 10.3826 10.9659 10.1345 11.079 9.86149C11.1921 9.58848 11.2503 9.29587 11.2503 9.00037C11.2503 8.70488 11.1921 8.41227 11.079 8.13926C10.9659 7.86626 10.8001 7.6182 10.5912 7.40925C10.3822 7.2003 10.1342 7.03455 9.86118 6.92147C9.58818 6.80839 9.29557 6.75018 9.00007 6.75018C8.70457 6.75018 8.41197 6.80839 8.13896 6.92147C7.86595 7.03455 7.61789 7.2003 7.40895 7.40925M10.5904 10.5908L7.4097 7.41" stroke="#D9D9D9" stroke-width="1.5" stroke-linecap="round" stroke-linejoin="round"/>
</svg>
